<svg width="427" height="107" viewBox="0 0 427 107" fill="none" xmlns="http://www.w3.org/2000/svg">
<path d="M2.875 15L27.25 14.5C46.1667 14.75 55.625 15.1667 55.625 15.75C55.625 16 55.375 16.125 54.875 16.125V16.5H55.125C55.9583 15.6667 58.0417 15.0417 61.375 14.625L62 14.5C62.25 15.1667 62.375 15.7083 62.375 16.125C62.375 20.875 62.625 25.0417 63.125 28.625L60.75 33.5C59.75 34 58.7917 34.25 57.875 34.25C55.2083 34.25 53.875 33.4583 53.875 31.875V31.625C54.0417 31.0417 54.4583 30.375 55.125 29.625C54.2917 29.375 53.875 28.6667 53.875 27.5C53.875 26 53.25 25.25 52 25.25C52 24.5833 51.9167 24.25 51.75 24.25H48.375V24.375C48.375 24.625 48.875 24.875 49.875 25.125V25.625L48.875 25.875L33.5 25.5H25.5C20.0833 25.5 17.375 25.8333 17.375 26.5C17.7917 26.5 18.25 34.3333 18.75 50C19.3333 50.5833 19.8333 50.875 20.25 50.875H21.125L27.375 50.5L37.5 51.75C38.3333 51.75 38.75 50.5417 38.75 48.125C38.75 47.0417 39.7917 46.3333 41.875 46L42.75 45.375C43.8333 45.375 44.375 49.6667 44.375 58.25V63.375C44.375 64.125 44.1667 64.5833 43.75 64.75C42.75 64.25 41.125 63.7917 38.875 63.375C38.625 63.375 38.2083 62.0833 37.625 59.5C37.625 58.6667 34.4167 58.25 28 58.25C22.0833 58.25 19.125 58.5 19.125 59L19 61L19.75 73.75C19.5833 78.5833 19.2083 83.5417 18.625 88.625L19.125 88.875C22.7083 88.625 27.375 88.2083 33.125 87.625H33.25C37.5833 87.625 43.5417 88.0833 51.125 89H51.375C52.0417 89 52.4167 88.5833 52.5 87.75H53.25L54.5 88.875L54.625 88.125C54.625 86.625 54.3333 85.875 53.75 85.875L52.875 86.375C52.0417 85.7917 51.4167 84.875 51 83.625C51 82.7083 52.5417 82.0833 55.625 81.75C55.875 81.75 56.9167 82.25 58.75 83.25C59.6667 83.25 60.125 84.125 60.125 85.875C60.125 91.7083 60.3333 96.5 60.75 100.25L60.375 101.5H59.75C59.1667 101 57 100.625 53.25 100.375C53.25 100.042 38.4583 99.5833 8.875 99C7.04167 99 6.125 98.25 6.125 96.75C5.79167 96.4167 5.625 94.9167 5.625 92.25L6.125 89.5V88.25L6.5 87.75H6.875C7.625 88.5 8.25 88.875 8.75 88.875H9.125C10.875 88.4583 11.75 87.8333 11.75 87L11 58.75C11 58.1667 10.5417 57.0833 9.625 55.5C9.875 55.5 10.2083 47.5417 10.625 31.625C10.875 31.125 11 30.2917 11 29.125V28.625C11 26.375 9.66667 25.25 7 25.25L3.875 24.375L2.25 24.625C0.916667 24.625 0.25 22.75 0.25 19L0.125 18.875C0.208333 16.2917 1.08333 15 2.75 15H2.875ZM3.5 16.375H3V16.5L4.25 18.375C4.83333 17.5417 5.33333 17.125 5.75 17.125L6.625 17.25L7 17.125C6.16667 16.625 5 16.375 3.5 16.375ZM10.125 17.125C9.54167 17.2083 9.25 17.375 9.25 17.625C9.25 17.875 9.375 18 9.625 18L10.75 17.625V17.125H10.125ZM21.375 17.25H21V17.5H21.375V17.25ZM11.875 17.75L11.5 18.375V18.5C11.6667 19 12.125 19.25 12.875 19.25H14.375V18.75C13.2917 18.0833 12.5 17.75 12 17.75H11.875ZM18 18.875H17.375V19C17.5417 19.4167 17.9167 19.625 18.5 19.625H19.125V19.5C18.9583 19.0833 18.5833 18.875 18 18.875ZM50.625 19.25L46.125 19.375V19.625L53.25 20.5C53.5 20.4167 53.7083 20.1667 53.875 19.75V19.375L50.625 19.25ZM23 19.5C23 19.8333 23.75 20 25.25 20C25.25 19.6667 24.5 19.5 23 19.5ZM17.125 22.875C17.2917 23.5417 17.7083 23.875 18.375 23.875H18.5C21.75 23.7917 23.375 23.4583 23.375 22.875C23.375 22.375 22.3333 22.125 20.25 22.125H19.875C18.0417 22.125 17.125 22.375 17.125 22.875ZM27.5 22.75L27.25 22.875C27.3333 23.2083 27.625 23.375 28.125 23.375H28.25C28.8333 23.375 29.1667 23.2083 29.25 22.875L28.875 22.75H27.5ZM10.125 23.125H7.25V23.375H10.125V23.125ZM55.625 27.875V28L56 28.375C56.25 28.375 56.4583 27.9167 56.625 27L56.5 26.125H56.125C55.7917 26.125 55.625 26.7083 55.625 27.875ZM58.25 30.875L58.5 31L58.875 31.375V31.5C59.375 31.5 59.625 31.0417 59.625 30.125V29.875H59.125C58.875 30.0417 58.5833 30.375 58.25 30.875ZM15.125 30.375L14.875 30.875V31.875C15.0417 32.5417 15.375 32.875 15.875 32.875L16.125 32.25V32.125C16.125 31.2083 15.7917 30.625 15.125 30.375ZM15.875 36.625L15.125 37.25V38.125L15.625 38.625H16L16.25 38.25L15.875 36.625ZM19.875 52.75L19.5 53.25V53.375H20.5V53.125L20 52.75H19.875ZM28.625 54H28.25V54.375L28.625 54.625H28.875V54.375L28.625 54ZM30.375 54.375H29.875V54.625H30.375V54.375ZM32 54.375H31.375L31.875 54.875H32.375V54.625L32 54.375ZM14 62.625H13.5L13.25 63.375V64.5H13.625L14 64.375V62.625ZM16.75 72.375H16.375V72.75H16.75V72.375ZM16.625 81.125H16.25L16.125 81.875V83.5L16.25 83.625V83.75C16.8333 83.75 17.125 83.2917 17.125 82.375C17.125 81.625 16.9583 81.2083 16.625 81.125ZM57 85L57.375 85.375C57.7917 85.2083 58 85.0417 58 84.875V84.625L57.75 84.25C57.25 84.4167 57 84.6667 57 85ZM16.25 91H15.875V91.375H16.25V91ZM16.75 92.125L16.375 92.5V92.625C16.4583 92.9583 16.9167 93.125 17.75 93.125H18.375L19.125 92.875V92.625C19.0417 92.2917 18.75 92.125 18.25 92.125H16.75ZM26.25 92.625H25V92.875L25.25 93.25H25.75L26.5 93.125V92.875L26.25 92.625ZM53 92.625L52.5 93.25V93.375C52.5833 93.7083 52.875 93.875 53.375 93.875C54.2083 93.7917 54.625 93.5833 54.625 93.25V93.125L54.5 92.625H53ZM31.375 93.125H28.5V93.375L31.375 93.75H38.75C38.75 93.3333 36.2917 93.125 31.375 93.125ZM12.875 93.625L11.5 93.75V94C11.6667 94.4167 12 94.625 12.5 94.625H13.75L14.125 94.125V94C14.125 93.75 13.8333 93.625 13.25 93.625H12.875ZM44.75 93.75H43.5V93.875C43.5 94.2917 45.5 94.5417 49.5 94.625V94.375C48 93.9583 46.4167 93.75 44.75 93.75ZM8.875 95.875H8.375V96.875L8.75 97.125H8.875V95.875ZM57.25 96H56V96.5L57.375 96.875H57.75L58 96.5V96.25L57.25 96ZM45.875 97.25L47.125 97.625H48.25C48.8333 97.625 49.1667 97.4583 49.25 97.125H49L47.625 96.875C46.4583 97.0417 45.875 97.1667 45.875 97.25ZM36.25 97.125H35.5V97.25L35.75 97.625H37.625V97.25L36.25 97.125ZM26.375 97.25L25.875 97.75V98.125H26.5L26.75 97.75V97.625L26.5 97.25H26.375Z" fill="#C23616"/>
<path d="M76.54 37.375C77.4567 37.5417 77.915 37.6667 77.915 37.75L77.415 38.625V38.75H77.665L84.04 38.625C91.29 38.625 96.1233 40.4583 98.54 44.125C100.457 46.625 101.498 48.0833 101.665 48.5L102.165 48.625C102.998 48.625 107.707 46.375 116.29 41.875C117.457 41.2917 118.415 41 119.165 41C122.582 41 126.123 42.2917 129.79 44.875C136.873 50.4583 140.415 55.2083 140.415 59.125C141.165 60.7083 142.457 69.25 144.29 84.75V88.125C144.29 88.875 144.498 89.3333 144.915 89.5H145.415C146.082 89.5 147.415 89.1667 149.415 88.5C150.748 88.5 151.415 90.9583 151.415 95.875C151.582 98.375 151.665 100.25 151.665 101.5H149.915C146.415 102.083 143.332 102.375 140.665 102.375L136.665 101.875L129.415 102.125H128.165C127.998 102.125 127.915 101.792 127.915 101.125L126.29 99.5V99.375L126.665 98.125V97.875L126.04 94.5V92.875C126.04 91.7917 126.873 91.25 128.54 91.25C131.54 91.5833 132.79 90.4583 132.29 87.875C132.207 81.375 132.457 76.5 133.04 73.25V73L132.79 65.5C132.79 64.1667 131.665 62.625 129.415 60.875L128.415 60.625H127.54L126.54 61.125C126.373 61.125 126.29 60.75 126.29 60C124.373 57.5 121.29 56.25 117.04 56.25C111.623 56.75 108.373 58.375 107.29 61.125C107.123 61.875 106.957 63.8333 106.79 67L107.04 69.875V78.875L106.915 82.5C106.915 86.25 107.957 88.4167 110.04 89C110.957 89.1667 111.415 89.4583 111.415 89.875C110.498 94.0417 109.915 96.3333 109.665 96.75L106.54 97.375L95.915 96.5L94.665 96.75C93.2483 96.75 92.54 94.625 92.54 90.375V89.875C92.54 89.375 93.79 88.75 96.29 88C96.9567 88 97.29 87.6667 97.29 87C96.8733 84.9167 96.665 82.5833 96.665 80L96.915 66.25C96.415 64.4167 96.165 62.9583 96.165 61.875C96.2483 59.7917 96.54 58.75 97.04 58.75L98.165 59.375H98.29V59.125C98.29 57.2917 95.4567 54.6667 89.79 51.25C88.29 50.6667 86.79 50.375 85.29 50.375C82.9567 50.375 80.3317 51.4167 77.415 53.5L77.29 54.125V64.25L77.665 90.375L78.165 90.875H78.665C78.915 90.875 79.0817 90.5833 79.165 90H79.415C81.665 90 83.04 90.5833 83.54 91.75V92.75L83.665 95.75C83.8317 99.1667 82.9567 100.875 81.04 100.875C80.54 101.042 78.29 101.208 74.29 101.375L58.04 100.375C57.2067 100.375 56.415 97.8333 55.665 92.75V92.625C55.665 91.875 57.3733 91 60.79 90C60.79 89.4167 62.4567 88.875 65.79 88.375C66.3733 88.2917 66.665 87.875 66.665 87.125L67.54 57.875L67.79 51C67.79 50.25 66.9983 49.875 65.415 49.875C63.8317 49.875 61.8733 50.0833 59.54 50.5C58.1233 49.75 57.415 48.9583 57.415 48.125C58.0817 47.7083 58.415 47.0417 58.415 46.125V45.125C57.9983 42.9583 57.4983 41.875 56.915 41.875L56.79 41.75V41.5C57.29 41.1667 57.8733 40.375 58.54 39.125C64.1233 38.375 70.1233 37.7917 76.54 37.375ZM71.165 48.75V55C71.165 56.25 70.915 57.5 70.415 58.75L71.29 60L71.04 62V63.25L71.29 63.5H71.415C72.0817 63.5 72.4567 58.9583 72.54 49.875V49.75C72.54 48.75 72.2483 48.0833 71.665 47.75C71.3317 47.8333 71.165 48.1667 71.165 48.75ZM59.665 46.375C59.665 47.2083 60.415 47.625 61.915 47.625C63.8317 47.625 65.79 47 67.79 45.75V45.375H67.29C62.2067 45.375 59.665 45.7083 59.665 46.375ZM80.415 44.875V45L86.915 44.25C88.7483 44.25 90.6233 45.0833 92.54 46.75H92.915V46.25C92.415 44.5 91.54 43.625 90.29 43.625H89.165C83.415 43.625 80.4983 44.0417 80.415 44.875ZM122.04 42.75C121.54 43 121.29 43.2083 121.29 43.375C121.29 43.5417 121.998 43.8333 123.415 44.25C124.165 45.3333 125.082 45.875 126.165 45.875H128.54V45.5C128.54 44.6667 126.415 43.75 122.165 42.75H122.04ZM63.665 94.625L63.29 95C63.29 96.0833 64.7483 96.2917 67.665 95.625C67.9983 96.2083 68.4567 96.5 69.04 96.5C71.1233 96.4167 73.29 96.2083 75.54 95.875V95.375L72.29 95.25C70.2067 95.4167 67.7067 95.3333 64.79 95L64.165 94.625H63.665ZM83.54 46.75C83.54 47 84.7067 47.4167 87.04 48C88.6233 48.8333 89.9983 49.25 91.165 49.25H91.29L91.54 48.875C89.6233 47.2083 87.4983 46.375 85.165 46.375H84.415C83.8317 46.4583 83.54 46.5833 83.54 46.75ZM124.54 53.125L124.165 53.5C125.998 55.5 127.707 56.5 129.29 56.5L129.665 56.25V55.625C129.082 54.875 128.165 54.0417 126.915 53.125H124.54ZM119.04 48.625V48.875C119.29 49.2917 119.54 49.5 119.79 49.5C123.207 49.5 125.04 49.2917 125.29 48.875C125.04 48.125 123.707 47.75 121.29 47.75H121.04C119.79 47.75 119.123 48.0417 119.04 48.625ZM135.915 71.75H135.165L134.915 72.25L135.29 77V77.375L135.665 77.875H135.915L136.54 77.25V72.375L135.915 71.75ZM59.165 92.125H58.79C58.79 92.875 58.4567 93.5833 57.79 94.25C58.3733 97.0833 58.9983 98.5 59.665 98.5H60.04L59.29 92.25L59.165 92.125ZM99.29 70.25L99.04 71.375V76L99.29 78.25H99.665C99.9983 77.5 100.165 76.4583 100.165 75.125C99.9983 71.875 99.7067 70.25 99.29 70.25ZM76.915 41.375V41.5L77.415 41.75L85.54 40.25V40H81.79C78.54 40 76.915 40.4583 76.915 41.375ZM103.165 50.625V51.75L103.665 52.125C104.665 52.125 105.957 51.375 107.54 49.875H104.415C103.832 49.875 103.415 50.125 103.165 50.625ZM74.79 53.5H74.54C74.3733 54.8333 74.29 56.25 74.29 57.75V59.375L74.54 60C75.1233 60 75.415 58.875 75.415 56.625V55.625C75.415 54.2083 75.2067 53.5 74.79 53.5ZM131.165 50.625H130.79V51.375C131.123 52.375 131.915 53.375 133.165 54.375V54.75H134.04V54.5C134.04 53.5833 133.082 52.2917 131.165 50.625ZM111.79 46.75V47H111.915C112.415 47 113.832 46.0417 116.165 44.125V43.625C113.248 44.5417 111.79 45.5833 111.79 46.75ZM136.165 94.125V94.5H137.79C140.207 94.5 141.415 94.25 141.415 93.75L140.915 93.5H140.665C137.665 93.5 136.165 93.7083 136.165 94.125ZM131.165 96V96.25H134.415C135.248 96.25 135.748 96.0417 135.915 95.625C135.832 95.2917 135.498 95.125 134.915 95.125H133.04C132.623 95.125 131.998 95.4167 131.165 96ZM135.54 63.375L137.04 65.625H137.54V64.75V63.75C137.54 63.25 137.415 62.9167 137.165 62.75H136.04C135.873 62.75 135.707 62.9583 135.54 63.375ZM71.165 87H68.54C68.6233 88.3333 68.79 89 69.04 89H69.415C70.4983 89 71.0817 88.3333 71.165 87ZM62.415 42.75L60.04 43V43.375L60.415 43.625C63.8317 43.625 65.54 43.4583 65.54 43.125L65.165 42.75H62.415ZM61.04 91.5L61.165 93.375H61.415C61.9983 92.5417 62.8317 91.9167 63.915 91.5V91.125L62.79 90.875H61.54C61.2067 90.875 61.04 91.0833 61.04 91.5ZM77.415 94.875L76.915 95.25C76.915 96 77.7067 96.4167 79.29 96.5L79.915 96V95.5C79.915 95.0833 79.0817 94.875 77.415 94.875ZM75.54 89.625L73.04 87.5V87.75C73.04 89.4167 73.54 90.25 74.54 90.25H75.29C75.4567 90.25 75.54 90.0417 75.54 89.625ZM96.04 48.875H95.915V49C95.915 49.8333 96.665 50.5833 98.165 51.25V49.875C98.165 49.7083 97.4567 49.375 96.04 48.875ZM133.665 57.875H133.415V58.125C134.082 60.375 134.707 61.5 135.29 61.5V61.25C135.29 60.0833 134.748 58.9583 133.665 57.875ZM90.29 41.375H89.54V41.75C91.4567 42.1667 92.665 42.375 93.165 42.375H93.415V42.125C93.415 41.625 92.3733 41.375 90.29 41.375ZM95.665 45.875H95.415V46.375C96.165 47.5417 96.8317 48.2917 97.415 48.625H97.79V48.5C97.3733 47.5 96.665 46.625 95.665 45.875ZM78.665 93.75L75.415 94V94.5H77.79L79.665 94.25V93.75H78.665ZM108.29 48.25L108.415 48.5H109.165C110.248 48.4167 110.79 48.0417 110.79 47.375L110.415 47.25C109.165 47.5 108.457 47.8333 108.29 48.25ZM139.79 89.75V90L140.165 90.375H140.54L141.04 89.75V89.125L140.79 88.625H140.29C139.957 88.875 139.79 89.25 139.79 89.75ZM67.79 92.375L66.79 92.625V93L67.79 93.125H68.79L69.54 93V92.625L68.79 92.375H67.79ZM143.165 94L143.29 94.125H143.79C144.207 94.125 144.498 94 144.665 93.75V93.625C144.665 92.9583 144.54 92.625 144.29 92.625C143.957 92.625 143.582 93.0833 143.165 94ZM65.04 40L65.415 40.5C67.0817 40.3333 67.915 40.0833 67.915 39.75L67.29 39.625C65.79 39.7083 65.04 39.8333 65.04 40ZM147.29 91.375L146.79 91.75V93.25L147.29 93.75C147.54 93.75 147.665 93.0833 147.665 91.75L147.54 91.375H147.29ZM76.415 98.5V98.75L76.79 99C77.54 98.6667 78.1233 98.25 78.54 97.75V97.5C77.79 97.5 77.0817 97.8333 76.415 98.5ZM103.29 57.75L103.165 58.125C103.332 58.7917 103.498 59.125 103.665 59.125H103.79L104.54 58.5V58.125C104.457 57.875 104.04 57.75 103.29 57.75ZM76.79 48.5V48.75H77.29C78.3733 48.6667 78.915 48.4583 78.915 48.125V47.75H77.915C77.165 47.9167 76.79 48.1667 76.79 48.5ZM102.915 88.625L102.415 89.25L102.79 89.625H103.665L104.165 89.125V89L103.79 88.625H102.915ZM121.54 44.625H120.79V45C120.79 45.25 121.207 45.375 122.04 45.375H122.54L122.79 45.125C122.707 44.7917 122.29 44.625 121.54 44.625ZM74.79 63.25L74.54 63.5V64.25L75.04 64.75H75.29L75.54 64.5V63.875L74.915 63.25H74.79ZM74.79 38.75L74.54 39.125V39.5L74.915 39.875C75.4983 39.875 75.79 39.5833 75.79 39L75.665 38.75H74.79ZM93.915 46.5L93.665 46.75C93.665 47.5833 94.04 48 94.79 48V47.75C94.79 47.1667 94.4983 46.75 93.915 46.5ZM99.665 55.25H99.415C99.415 55.9167 99.7483 56.25 100.415 56.25H100.665V55.75C100.582 55.4167 100.248 55.25 99.665 55.25ZM100.165 94L99.79 94.5V94.75L100.54 94.875L101.29 94.75V94.5L100.915 94H100.165ZM80.79 91.5H79.915V92.25L80.79 92.375L81.165 91.875L80.79 91.5ZM61.915 95.625H61.665V96.5L61.915 96.875H62.29V96L61.915 95.625ZM135.665 82.5L135.29 82.875V83.375L135.54 83.625H135.915V82.5H135.665ZM74.54 41.125L74.29 41.5V41.75L74.54 42H74.79L75.29 41.75L75.04 41.125H74.54ZM136.165 85.875L135.665 86.5V86.625L136.165 87.125L136.54 86.625V86.375L136.165 85.875ZM77.29 44.875L76.79 44.625L76.54 45.125L76.79 45.375H76.915L77.29 45.125V44.875ZM103.415 86L103.165 86.375V86.75L103.665 86.875L103.79 86.375L103.665 86H103.415ZM71.415 64.25H71.29V64.75L71.665 65.125H71.79V64.5L71.415 64.25ZM70.415 44.25L70.165 44.625V44.875H70.415L70.915 44.5V44.25H70.415ZM74.79 94.625H75.04V94.5C74.9567 94.5 74.8733 94.5417 74.79 94.625ZM164.08 33.25L179.58 32.875C180.913 32.875 183.705 33.4583 187.955 34.625C192.788 39.2083 195.663 42.7917 196.58 45.375C198.413 47.2917 199.872 51.0833 200.955 56.75C202.288 58.0833 202.955 61.0417 202.955 65.625L203.08 68.75L202.58 81.125C202.58 83.625 204.122 86.7083 207.205 90.375C210.038 93.125 211.872 94.5 212.705 94.5V94.75C212.705 95.75 211.247 97.3333 208.33 99.5C206.163 101.667 204.788 102.75 204.205 102.75H204.08C202.747 102.583 199.372 100.125 193.955 95.375C184.122 99.2083 179.163 101.167 179.08 101.25C175.83 102.25 172.205 102.75 168.205 102.75H167.58C163.08 102 159.247 100.25 156.08 97.5C155.497 97 154.288 94.9167 152.455 91.25C150.955 89.4167 150.205 87.1667 150.205 84.5V80.875C150.205 78.5417 150.83 76.375 152.08 74.375C153.163 70.9583 155.038 67.7083 157.705 64.625C159.038 63.0417 160.372 62.0417 161.705 61.625C166.038 59.2917 170.33 58.125 174.58 58.125L180.205 58H180.955C184.122 58 186.372 58.4583 187.705 59.375H188.455C188.872 59.375 189.08 59.2083 189.08 58.875C188.163 54.9583 186.663 51.2083 184.58 47.625C182.747 44.5417 179.33 43 174.33 43L169.205 42.25C164.788 43.1667 162.58 44.0833 162.58 45C160.83 47.25 159.788 50.0417 159.455 53.375C159.288 53.7917 157.788 54 154.955 54L154.205 54.25C153.872 54.25 153.455 54.9583 152.955 56.375C150.622 56.0417 149.455 55.5417 149.455 54.875C149.622 54.375 149.913 51.375 150.33 45.875C151.663 42.0417 154.83 38.5 159.83 35.25C162.163 33.9167 163.58 33.25 164.08 33.25ZM178.08 35.375L177.83 35.75L178.205 36.25H178.955L179.08 36L178.705 35.375H178.08ZM187.58 36.375H187.33V36.625C187.997 37.2917 188.58 37.625 189.08 37.625H189.205V37.375C188.538 36.7083 187.997 36.375 187.58 36.375ZM167.58 37V37.375C167.663 37.625 168.08 37.75 168.83 37.75C169.58 37.75 170.622 37.5 171.955 37V36.5H171.455C169.622 36.5 168.33 36.6667 167.58 37ZM156.33 41V41.25H156.455C157.205 41.25 158.33 40.4583 159.83 38.875V38.5H159.705C158.872 38.5 157.747 39.3333 156.33 41ZM173.705 40.125L173.08 40.625L173.455 41.25H175.08L175.455 40.875L174.705 40.125H173.705ZM155.33 50.25L154.955 50.5V52.375H155.08C155.413 52.2917 155.58 52 155.58 51.5V50.5L155.33 50.25ZM200.705 60.25H200.58V60.5C200.747 61.1667 200.913 61.5 201.08 61.5L201.205 60.875C201.038 60.4583 200.872 60.25 200.705 60.25ZM197.83 64.625L197.455 64.875V65.25C197.788 66.5 198.122 67.125 198.455 67.125H198.705C198.705 66.0417 198.455 65.2083 197.955 64.625H197.83ZM161.205 65.375L159.83 66V66.625H160.08C160.663 66.625 161.08 66.2917 161.33 65.625V65.375H161.205ZM159.83 77.25C160.413 82.25 161.122 84.75 161.955 84.75L163.205 86.375V86.5L162.08 86.375V86.75C163.663 88.9167 166.913 90.9167 171.83 92.75C172.413 93.0833 173.247 93.3333 174.33 93.5C175.83 93.5 181.58 91.0417 191.58 86.125C192.247 85.7083 192.58 85.25 192.58 84.75V84.125C191.83 80.7083 191.205 76.7083 190.705 72.125L190.455 72C190.455 71.0833 189.538 70.3333 187.705 69.75C181.538 68 177.33 67.125 175.08 67.125C168.747 68.5417 164.413 70.6667 162.08 73.5C160.58 75 159.83 76.25 159.83 77.25ZM197.455 69.125L197.08 68.875V69.25H197.455V69.125ZM197.955 71.5H197.205V72L197.58 72.375L197.955 72V71.5ZM193.955 74.625L193.58 75L193.955 75.5L194.455 75.375V75L194.08 74.625H193.955ZM198.455 75H198.08V75.125C198.247 78.2917 198.58 79.875 199.08 79.875L199.33 79.625V79.375C199.33 77.625 199.038 76.1667 198.455 75ZM193.58 79L193.455 79.125V79.875L193.83 80.375H193.955L194.455 79.875V79.125L194.08 79H193.58ZM204.205 90.75H203.83V91.5C204.163 92.5833 204.538 93.125 204.955 93.125H205.33V92.75C204.997 91.4167 204.622 90.75 204.205 90.75ZM158.205 91.125L157.955 91.375V91.5L158.205 91.75H158.83V91.5L158.455 91.125H158.205ZM200.33 92.75L199.955 93.125C200.205 93.7083 200.538 94.0833 200.955 94.25H201.08L201.58 93.75V93.5L200.955 92.75H200.33ZM182.205 94.5V94.75H182.705C183.872 94.75 185.413 94.25 187.33 93.25V93.125H186.83C183.997 93.4583 182.455 93.9167 182.205 94.5ZM203.08 94.875L202.83 95.375V95.625L203.33 96.125H203.83L204.205 95.875V95.625L203.58 94.875H203.08ZM172.205 95.875L171.83 96.25C171.997 96.6667 172.33 96.875 172.83 96.875C173.747 96.7083 174.205 96.5 174.205 96.25V96.125L173.83 95.875H172.205ZM158.58 97.625L158.205 98.125C158.538 98.875 160.622 99.8333 164.455 101C165.705 101.583 167.372 101.875 169.455 101.875V101.75C169.455 101.5 167.872 101.042 164.705 100.375C162.872 99.875 160.955 98.9583 158.955 97.625H158.58ZM253.37 42.75C256.62 42.75 259.37 45.0417 261.62 49.625C262.037 49.625 262.62 50.1667 263.37 51.25L264.995 60.5C264.412 61.5 262.203 62 258.37 62H257.12C254.037 61.5 252.495 60.4583 252.495 58.875C252.495 57.7083 251.537 56.0833 249.62 54C249.37 53.5833 247.578 53.375 244.245 53.375C241.078 53.375 237.245 54.2083 232.745 55.875C229.578 59.2083 227.495 61.7917 226.495 63.625C227.078 77.875 227.287 86.7917 227.12 90.375C227.12 91.125 227.62 91.5 228.62 91.5H231.62C232.953 91.5833 233.62 91.8333 233.62 92.25V92.375L234.12 94L233.87 101L233.12 102L227.245 102.625H226.745L224.245 103.375C214.662 103.042 209.87 102.667 209.87 102.25C208.203 102.25 207.37 101.5 207.37 100C207.203 98.5 207.12 96.9583 207.12 95.375C207.12 93.7917 208.745 92.75 211.995 92.25C211.995 91.5833 213.12 91.25 215.37 91.25L215.745 91.125V90.875L214.995 56.625C214.995 54.5417 214.453 53.5 213.37 53.5H212.62C211.62 53.5 209.953 53.9583 207.62 54.875L207.37 54.625V54.375C207.37 54.2083 207.703 54 208.37 53.75V53.5C207.537 53.5 207.12 51.1667 207.12 46.5C206.953 46.5 206.828 45.75 206.745 44.25C210.078 41.6667 213.578 40.375 217.245 40.375H220.37C221.62 40.375 223.745 40.7917 226.745 41.625V42C225.995 43.1667 225.62 44 225.62 44.5V45.375C232.37 42.375 241.62 41.5 253.37 42.75ZM220.62 61.625V62.25C221.037 63.0833 221.245 63.9583 221.245 64.875C221.162 65.2083 221.037 66.9167 220.87 70L221.12 75H221.245C221.495 75 221.828 71.125 222.245 63.375C222.412 63.375 222.495 62.5417 222.495 60.875C222.412 60.125 222.203 59.75 221.87 59.75H221.62C220.953 60.1667 220.62 60.7917 220.62 61.625ZM213.12 99.375L211.495 99.5V99.75C211.495 100.167 212.703 100.375 215.12 100.375H218.87L219.745 100.25C219.745 99.8333 217.537 99.5417 213.12 99.375ZM234.745 48.125V48.375C235.495 48.375 236.495 47.1667 237.745 44.75V44.125H237.62C235.453 44.7917 234.495 46.125 234.745 48.125ZM250.87 52.125H251.495C251.912 52.0417 252.703 51.0417 253.87 49.125V49C253.87 48.8333 253.703 48.75 253.37 48.75C251.953 49.4167 251.245 50.2917 251.245 51.375C251.162 51.375 251.037 51.625 250.87 52.125ZM222.12 55H221.62L220.995 57.625C220.995 58.0417 221.245 58.4583 221.745 58.875H221.87C222.12 58.875 222.328 58.2917 222.495 57.125L222.12 55ZM239.495 45.375L240.12 47.875H241.12V45.25L240.745 44.875H240.37C239.787 44.9583 239.495 45.125 239.495 45.375ZM212.245 97.375L211.995 97.625L212.12 97.875H218.995V97.5L214.745 97.375H212.245ZM209.995 45.25C210.662 45.9167 211.37 46.25 212.12 46.25L212.245 46V45.125L211.745 44.5C210.578 44.6667 209.995 44.9167 209.995 45.25ZM222.62 98.25L222.995 98.625H224.87L225.37 98.125C225.37 97.9583 225.162 97.7917 224.745 97.625C223.328 97.7917 222.62 98 222.62 98.25ZM258.62 48.625H258.245V48.875C258.912 49.5417 259.495 49.875 259.995 49.875H260.37V49.625C259.703 48.9583 259.12 48.625 258.62 48.625ZM215.745 42.75H215.37V43.25L216.12 44.125H217.245V43.875L215.745 42.75ZM211.995 50.125V50.375H212.37C213.287 50.375 213.787 50.2083 213.87 49.875L213.62 49.5H213.37C212.62 49.5 212.162 49.7083 211.995 50.125ZM243.995 44.25L242.495 44.375V44.5L242.745 44.875H243.995C244.578 44.875 244.912 44.7083 244.995 44.375L244.745 44.25H243.995ZM224.245 84.5L223.745 84.875V85.875H224.245L224.745 85.5V84.75L224.495 84.5H224.245ZM209.245 98.125L208.745 97.625L208.495 98.125V98.625L208.745 99H209.245V98.125ZM226.745 50.875L226.245 51V51.375L226.745 51.75H227.12L227.495 51.375V51L226.745 50.875ZM246.495 44.125V44.375H247.37L247.87 44L247.495 43.625C246.828 43.7917 246.495 43.9583 246.495 44.125ZM254.745 44.125L254.495 44.375V44.5L254.745 44.875H255.245L255.495 44.5V44.375L255.245 44.125H254.745ZM224.37 42.875L223.745 43.125V43.625H224.37L224.745 43.125L224.37 42.875ZM223.995 45.125L223.495 45.5V45.75L223.745 46L224.37 45.5V45.125H223.995ZM254.37 55.5V55.75H254.62L255.12 55.375V55H254.995C254.578 55.25 254.37 55.4167 254.37 55.5ZM250.12 44.5L249.62 44.875V45H250.245L250.495 44.75V44.5H250.12ZM224.245 87.25H223.995V87.75H224.245V87.25ZM258.91 6.75L259.66 6.625H260.66C267.993 7.45833 272.327 8.5 273.66 9.75C274.243 9.75 274.785 11.375 275.285 14.625L274.66 15.75V16.125C275.577 17.2083 276.202 22.4583 276.535 31.875C276.535 48.4583 276.993 59.1667 277.91 64H278.41C282.91 60.3333 289.868 55.2917 299.285 48.875C300.035 48.875 300.66 45.1667 301.16 37.75C301.16 36 301.993 35.125 303.66 35.125L308.66 34.75C316.16 34.75 320.66 35.5417 322.16 37.125V37.375L321.785 37.75C320.285 37.1667 319.118 36.875 318.285 36.875L317.91 37.375V37.5C317.91 38 319.118 38.375 321.535 38.625C322.202 38.625 322.535 40.5833 322.535 44.5C322.535 46.0833 321.91 46.875 320.66 46.875C320.327 46.875 319.702 47.4583 318.785 48.625L318.41 48.75L315.91 48.625H315.41C315.41 49.5417 314.452 50.4583 312.535 51.375C312.202 51.375 312.035 51.5833 312.035 52L312.535 52.875L300.535 61.125L300.41 61.5C300.493 62 304.618 70.4583 312.785 86.875C313.952 89.2917 314.702 91.2083 315.035 92.625H314.285L313.535 91.875H313.16C313.16 92.875 314.743 93.375 317.91 93.375C323.493 93.375 326.285 93.875 326.285 94.875L325.285 96.125C326.368 97.9583 326.91 100.667 326.91 104.25C326.91 105.417 326.327 106 325.16 106L324.035 106.125C322.035 105.792 317.16 105.625 309.41 105.625H308.66C307.66 105.625 306.91 104.333 306.41 101.75C305.91 97.4167 305.077 93.4583 303.91 89.875C301.993 85.5417 299.202 79.75 295.535 72.5C294.118 68.3333 293.035 66.25 292.285 66.25C290.868 66.4167 288.618 67.7083 285.535 70.125C284.452 71.0417 283.66 71.5 283.16 71.5C282.66 71.3333 282.41 71.1667 282.41 71V70.875L282.785 70.25V70.125H282.035C281.535 70.125 280.993 71.25 280.41 73.5L280.535 74.25C279.868 74.6667 279.535 75.375 279.535 76.375L279.785 89.75C279.785 90.8333 281.577 91.5417 285.16 91.875C285.743 92.375 287.035 92.9583 289.035 93.625L289.535 94.875L289.41 96.75V98.125L289.785 99.875V100.125C289.452 100.792 288.827 101.333 287.91 101.75L287.785 101.625H287.035V102.125C287.035 102.708 287.618 103.208 288.785 103.625V103.875C288.785 104.125 288.285 104.333 287.285 104.5L281.41 103C273.327 102.583 268.077 102.125 265.66 101.625L263.91 102C262.827 101.5 262.285 100.167 262.285 98V97.25L262.16 97.125C262.16 95.7083 262.785 94.5417 264.035 93.625H264.535V95.5L265.035 96H266.66L266.16 95.375V95L267.16 94.875H268.41L266.91 93.375L268.66 93V92.625C268.577 92.375 268.16 92.25 267.41 92.25H266.91L264.285 92.625V92.375C264.285 91.7917 266.16 91.2083 269.91 90.625C270.827 90.375 272.243 90.125 274.16 89.875L274.535 89.375V89.25C274.535 89.0833 273.952 89 272.785 89C272.118 89 271.785 85.4167 271.785 78.25C271.285 69.5833 270.493 63.625 269.41 60.375C268.91 39.625 268.243 27.25 267.41 23.25C267.41 23 265.952 22.75 263.035 22.5L259.41 23.375C258.493 22.4583 257.993 21.7083 257.91 21.125L257.66 13.375L257.535 12.875C257.702 11.625 257.868 11 258.035 11L259.41 11.25V11C259.41 10.6667 259.077 10.0417 258.41 9.125V8.5C259.077 8.5 259.41 8.375 259.41 8.125L258.91 7.25V6.75ZM270.535 13.875V14.125C270.868 14.9583 271.368 15.375 272.035 15.375C272.618 14.7083 272.91 13.9583 272.91 13.125L272.41 13C271.493 13 270.868 13.2917 270.535 13.875ZM262.66 15.875V16.125C262.66 16.4583 263.285 16.75 264.535 17V17.25C262.952 17.3333 262.16 17.5833 262.16 18V18.5L262.535 18.875H263.785C265.035 18.875 265.952 18.125 266.535 16.625L267.035 16.125C267.035 15.625 266.035 15.375 264.035 15.375H263.535C262.952 15.4583 262.66 15.625 262.66 15.875ZM272.535 26.875L272.285 27.375V29.875C272.285 31.875 272.493 32.875 272.91 32.875H273.035L273.41 32.5V30.75C273.327 28.1667 273.035 26.875 272.535 26.875ZM305.535 35.375L304.785 35.5V35.875L304.91 36.25H305.535L305.785 35.875V35.625L305.535 35.375ZM302.535 42.625C302.618 43.7083 302.785 44.25 303.035 44.25H303.91C304.16 44.25 304.285 44.0833 304.285 43.75L303.66 42.25L304.285 40V39.625H304.035C303.035 40.125 302.535 41.125 302.535 42.625ZM313.91 43.625C313.91 43.875 315.243 44.0833 317.91 44.25C318.827 44.0833 319.285 43.875 319.285 43.625V43.125H318.41H315.91C314.577 43.125 313.91 43.2917 313.91 43.625ZM272.535 45H272.285V45.625L272.535 45.875L273.035 45.375L272.535 45ZM302.035 45.375L302.535 45.875H302.66C303.327 45.875 303.702 45.7083 303.785 45.375V45H303.285C302.618 45 302.202 45.125 302.035 45.375ZM300.785 51.125V51.25H300.91C301.243 51.25 302.535 50.5 304.785 49C305.618 48.9167 306.035 48.6667 306.035 48.25V47.75H305.285C304.285 47.75 302.785 48.875 300.785 51.125ZM300.535 56.625V57H300.785C303.868 56.1667 307.785 53.75 312.535 49.75L312.785 49.25H312.535C308.368 50.75 304.368 53.2083 300.535 56.625ZM279.035 65.75V66.125H279.535C280.618 66.125 281.535 65.625 282.285 64.625V64.25C281.118 64.25 280.035 64.75 279.035 65.75ZM294.16 65.5C294.743 67.0833 295.368 67.875 296.035 67.875H296.16V67.75C296.077 65.9167 295.535 65 294.535 65C294.285 65 294.16 65.1667 294.16 65.5ZM275.66 65.875L275.285 66.5V66.625H275.66L275.91 66.25V65.875H275.66ZM284.16 68.625V68.875H284.41C286.077 68.2083 287.535 67.2917 288.785 66.125V65.875C285.702 67.2083 284.16 68.125 284.16 68.625ZM275.41 72.25V73.375L275.66 73.625H276.035C276.452 73.4583 276.66 73 276.66 72.25V72C276.66 71.0833 276.493 70.1667 276.16 69.25H276.035C275.618 69.25 275.41 70.25 275.41 72.25ZM298.91 72.125H298.535V72.25C299.368 75.4167 300.868 78.9167 303.035 82.75H303.66V82.375C303.66 80.625 302.077 77.2083 298.91 72.125ZM275.285 77.125V78.875L275.66 79.125C276.327 79.125 276.66 78.7083 276.66 77.875V75.875L276.41 75.625H276.035C275.535 75.7083 275.285 76.2083 275.285 77.125ZM305.535 76.625H305.16V76.875L305.66 77.375H305.785V76.875L305.535 76.625ZM276.66 81.875H276.16L276.035 82.625V83.875H276.16C276.493 83.7917 276.66 83.375 276.66 82.625V81.875ZM304.285 84.125H304.035V84.375C304.702 86.4583 305.41 87.75 306.16 88.25H306.66C306.66 87.5833 305.91 86.2083 304.41 84.125H304.285ZM275.41 89.375L276.035 90H276.16C276.577 89.8333 276.785 89.5 276.785 89C276.785 88.4167 276.66 88.125 276.41 88.125C275.743 88.5417 275.41 88.9583 275.41 89.375ZM309.16 92.375V92.625L309.535 93.125H310.535L311.035 92.625C310.785 92.125 310.41 91.875 309.91 91.875C309.41 91.9583 309.16 92.125 309.16 92.375ZM287.91 94.625H287.535V94.875L288.035 95.25H288.16V94.875L287.91 94.625ZM283.285 96.125C283.868 97.2083 284.743 97.75 285.91 97.75H286.035L286.41 97.375C286.077 96.375 285.66 95.7083 285.16 95.375H284.66C283.993 95.375 283.535 95.625 283.285 96.125ZM324.535 95.875H324.16V96.5L324.535 96.75H324.91V96.125L324.535 95.875ZM275.16 96.125H274.91V96.5H275.41L275.16 96.125ZM279.285 96.125L279.035 96.5H279.66L279.285 96.125ZM265.785 97.625V97.75L265.91 98V98.125L271.785 98.25H272.535C275.202 98.25 276.535 98.0417 276.535 97.625V97.375C276.535 97.2083 275.618 97.0833 273.785 97C269.118 97.1667 266.452 97.375 265.785 97.625ZM316.66 97.375L316.285 97.75L316.91 98.25H317.41L317.91 97.75L317.535 97.375H316.66ZM320.035 98H318.785V98.125L319.41 98.5H320.035V98ZM324.535 99.875V102H324.66C324.993 102 325.16 101.125 325.16 99.375V98.5C324.743 98.6667 324.535 99.125 324.535 99.875ZM280.41 98.625L280.035 98.875V99.25L281.91 99.375H282.66V99.25C282.66 98.8333 281.91 98.625 280.41 98.625ZM269.785 99.625L269.41 99.875L282.91 101.75V101.375C282.91 100.208 280.368 99.625 275.285 99.625H269.785ZM284.66 101.25L284.16 101.375V101.625L284.41 102H285.41L285.66 101.625C285.577 101.375 285.243 101.25 284.66 101.25ZM315.66 103.875V104H316.16L318.785 104.25L321.785 104H322.16L322.535 103.75V103.625L321.785 103.5H316.91C316.077 103.5 315.66 103.625 315.66 103.875ZM351.575 38.25C355.075 38.25 359.325 39.75 364.325 42.75C368.575 45.9167 370.7 48.0833 370.7 49.25C374.033 56.25 375.7 60.4583 375.7 61.875L375.825 62.875C374.575 65.7917 373.95 67.7917 373.95 68.875L373.2 69H362.575C361.575 69 360.367 69.125 358.95 69.375C346.95 68.375 338.533 67.875 333.7 67.875H331.075C330.075 69.375 329.575 70.4583 329.575 71.125C330.158 72.0417 330.45 73.5 330.45 75.5C330.45 78.6667 330.95 80.5417 331.95 81.125L332.075 81.75V81.875L331.325 81.5V81.875L332.45 83.125C332.45 84.2083 333.2 85.5833 334.7 87.25C337.45 92.0833 340.45 95.0833 343.7 96.25C346.45 97.1667 349.575 97.625 353.075 97.625C353.658 97.625 354.867 97.0833 356.7 96C358.2 95.6667 361.367 92.9583 366.2 87.875V87.5C366.2 87.3333 365.617 87.1667 364.45 87L364.2 86.375C366.117 82.7083 368.408 80.2917 371.075 79.125C371.825 79.875 373.367 81.0417 375.7 82.625C377.533 85.4583 379.992 88.7917 383.075 92.625V93.125C380.408 96.625 378.492 98.375 377.325 98.375H376.825C376.825 96.5417 375.7 95.5 373.45 95.25C373.033 95.25 371.2 96.625 367.95 99.375C366.033 100.875 362.742 102.292 358.075 103.625C352.658 104.708 348.825 105.25 346.575 105.25L339.45 102.75C335.45 102.75 331.783 100.583 328.45 96.25C327.033 94.75 325.867 92.9583 324.95 90.875C324.95 90.2083 324.033 86.75 322.2 80.5C321.617 78.0833 321.325 75.75 321.325 73.5V73.375C321.325 62.2917 324.658 52.5833 331.325 44.25C332.158 42.1667 334.075 40.625 337.075 39.625C339.075 39.0417 341.492 38.5833 344.325 38.25C345.075 37.9167 347.492 37.9167 351.575 38.25ZM340.075 40.875V41H340.325C341.658 41 344.158 40.5417 347.825 39.625C348.575 39.5417 348.95 39.3333 348.95 39L348.575 38.625H348.45C346.033 38.625 343.325 39.2917 340.325 40.625L340.075 40.875ZM335.075 43V43.125L335.45 43.375H335.575C337.242 42.9583 338.075 42.5417 338.075 42.125V41.375L337.575 40.875H337.325C335.825 41.375 335.075 42.0833 335.075 43ZM354.325 41.75H350.575V42C350.575 42.3333 352.283 42.5833 355.7 42.75H355.825V42.25C355.825 42.0833 355.325 41.9167 354.325 41.75ZM345.45 43.625V43.75C345.45 44.0833 347.158 44.5 350.575 45L350.825 44.875V44.375C350.158 43.4583 349.033 43 347.45 43H347.075C345.992 43.0833 345.45 43.2917 345.45 43.625ZM353.075 44.375V44.5C357.825 47.25 360.367 48.625 360.7 48.625H360.825L362.075 48.125L362.825 48.375L362.95 48.125V48C362.617 47.75 361.908 47.5 360.825 47.25L358.325 46.125C357.658 44.7083 356.325 44 354.325 44H353.95C353.367 44.0833 353.075 44.2083 353.075 44.375ZM338.2 48C339.033 47.3333 340.7 46.625 343.2 45.875V45.625L343.075 45.375H341.825C339.408 46.0417 338.2 46.9167 338.2 48ZM331.575 56.25V56.625C331.575 57.5417 339.158 58.5833 354.325 59.75L355.575 60.125L357.2 60C360.533 61.0833 362.783 61.625 363.95 61.625C363.95 61.875 364.2 62.0833 364.7 62.25C365.2 61.5 365.45 60.7917 365.45 60.125V57.75C365.45 56.6667 363.367 54.25 359.2 50.5C357.283 48.5833 355.117 47.5 352.7 47.25L348.45 46.5C341.533 47.9167 336.992 49.625 334.825 51.625C333.908 53.375 332.825 54.9167 331.575 56.25ZM332.95 48.75V49H333.2C334.283 48.75 334.825 48.4583 334.825 48.125V48H334.2C333.783 48 333.367 48.25 332.95 48.75ZM362.825 50.5C362.992 51.1667 363.367 51.5 363.95 51.5H364.2L364.45 51.125V50.375L363.95 49.75C363.2 49.75 362.825 50 362.825 50.5ZM330.575 51.125L330.325 51.5V51.625H330.575L331.075 51.25V51.125H330.575ZM365.95 52.125H365.45C366.367 54.875 367.033 56.375 367.45 56.625H367.95L368.325 56.375C367.658 53.7083 366.95 52.375 366.2 52.375L365.95 52.125ZM331.7 54.375C332.2 54.2917 332.45 53.9583 332.45 53.375V53.25C331.95 53.4167 331.7 53.7917 331.7 54.375ZM370.2 57.75L369.825 58V58.875L370.2 59.375C370.533 59.2917 370.7 59 370.7 58.5V58L370.575 57.75H370.2ZM330.325 59.5V60L330.575 60.25H330.825C331.408 60 331.908 59.5417 332.325 58.875V58.5H331.7C331.2 58.5 330.742 58.8333 330.325 59.5ZM325.2 58.75C324.533 59.4167 323.95 61.0833 323.45 63.75H323.7C324.2 63.75 324.95 62.2917 325.95 59.375C325.783 58.9583 325.533 58.75 325.2 58.75ZM337.95 60.25V60.625C339.533 61.7083 342.408 62.25 346.575 62.25H347.7L349.325 62.125V61.625C345.908 60.875 342.117 60.4167 337.95 60.25ZM360.825 63.5H360.45V63.875H360.825V63.5ZM336.7 64.5V64.75C338.367 65.1667 342.783 65.5833 349.95 66V66.125V66.25L347.325 66.625C347.325 66.875 348.408 67 350.575 67C354.075 67 355.825 66.8333 355.825 66.5C355.825 65.6667 349.45 65 336.7 64.5ZM324.075 65.375H323.45V66.125C323.45 66.625 323.575 66.875 323.825 66.875C324.242 66.875 324.492 66.4583 324.575 65.625L324.075 65.375ZM334.2 65.625L333.575 65.75V66.5H334.2V66V65.75V65.625ZM330.2 66.625V66.75H330.325L332.45 66.5V66.25L332.075 65.75H331.7C330.95 65.75 330.45 66.0417 330.2 66.625ZM360.575 66.875C360.575 67.2083 361.325 67.375 362.825 67.375L363.95 67.25V67C363.95 66.6667 363.158 66.5 361.575 66.5C360.908 66.6667 360.575 66.7917 360.575 66.875ZM323.45 70.125V70.5V70.625C323.367 70.875 323.325 71.4583 323.325 72.375V72.875C323.325 74.375 323.742 75.7083 324.575 76.875H324.7C324.7 72.875 324.283 70.625 323.45 70.125ZM325.7 81H325.325V81.25L325.7 81.5H325.95V81.25L325.7 81ZM326.575 83.125L326.45 83.25V83.5C326.783 84.8333 327.283 85.5 327.95 85.5V85.375V85.125C327.95 84.4583 327.492 83.7917 326.575 83.125ZM367.325 84.25L367.575 84.625H368.2C368.7 84.625 368.992 84.4583 369.075 84.125L368.575 83.625H368.45C367.867 83.625 367.492 83.8333 367.325 84.25ZM364.45 91.5L364.7 91.625H364.825C365.742 91.625 366.325 91.0833 366.575 90V89.75C365.658 89.75 364.95 90.3333 364.45 91.5ZM373.2 91.25L373.325 91.375H373.7C374.2 91.0417 374.45 90.5833 374.45 90H374.075C373.492 90.3333 373.2 90.75 373.2 91.25ZM377.575 90H377.45V90.25C377.7 91.25 378.075 91.75 378.575 91.75H378.7L378.95 91.5V91.375C378.783 90.4583 378.325 90 377.575 90ZM370.325 92.625L370.7 92.875C371.95 92.4583 372.575 91.9167 372.575 91.25V91H372.45C371.283 91 370.575 91.5417 370.325 92.625ZM360.575 95.375H360.825C361.492 95.125 361.867 94.7083 361.95 94.125L361.825 94C360.992 94.5 360.575 94.9583 360.575 95.375ZM367.95 96H368.45C369.283 95.25 369.7 94.7083 369.7 94.375H369.575C368.492 94.7083 367.95 95.25 367.95 96ZM332.45 97.125H332.075V97.625C332.242 98.0417 332.95 98.5 334.2 99L334.7 99.375C333.783 97.9583 333.033 97.2083 332.45 97.125ZM341.2 97.625H341.075V97.75C341.075 98.0833 341.95 98.4583 343.7 98.875L343.825 98.75V98.5C342.742 97.9167 341.867 97.625 341.2 97.625ZM348.575 99H348.2V99.375H348.575V99ZM361.575 100.875C362.408 100.875 363.075 100.25 363.575 99H363.2C362.117 99.5833 361.575 100.208 361.575 100.875ZM352.825 102.125L350.2 101.875H349.7C348.95 101.875 348.533 102.042 348.45 102.375V102.625L348.95 103H351.2C353.783 103 356.825 102.542 360.325 101.625C360.158 101.125 359.658 100.875 358.825 100.875H358.2C356.2 100.875 354.408 101.292 352.825 102.125ZM404.24 0.5C406.073 0.5 407.573 1 408.74 2C407.74 4.66667 407.073 8.875 406.74 14.625L405.615 26.125C405.615 26.7083 407.282 27 410.615 27C420.448 27 425.365 27.4583 425.365 28.375C425.782 28.375 426.282 28.625 426.865 29.125C426.032 30.2083 425.615 31 425.615 31.5V31.875L425.99 34.375L424.365 39.875C424.365 40.4583 424.99 41.2917 426.24 42.375V42.625C424.24 43.2917 422.615 43.625 421.365 43.625C420.032 43.5417 419.365 43.3333 419.365 43V42.75L420.49 42.625H421.365L421.865 42.125V41.875L421.365 41.75L412.99 41.875L406.115 41.75C405.698 41.75 405.24 44.0833 404.74 48.75H404.615L402.865 46.75L402.49 48.125V48.875C402.573 51.2083 402.865 52.4583 403.365 52.625C403.698 52.625 403.99 51.875 404.24 50.375V49.5H404.615L404.74 49.875L403.865 61.875C404.865 79.125 405.74 87.75 406.49 87.75C406.907 90.4167 407.948 91.75 409.615 91.75C410.532 92.3333 411.657 92.625 412.99 92.625H415.24L422.74 92.25C422.907 92.25 423.198 94.4583 423.615 98.875C423.782 100.208 423.49 101.167 422.74 101.75C422.073 102.417 420.907 102.75 419.24 102.75L409.615 103C404.365 103 399.948 101.542 396.365 98.625C394.032 97.7917 392.865 95.2917 392.865 91.125C392.698 88.875 392.407 82.2083 391.99 71.125L393.49 54.125L393.865 46.75V45.75C393.282 42.25 392.282 40.5 390.865 40.5H387.115H382.74C381.49 40.5 380.24 40.7917 378.99 41.375C378.157 41.2917 377.115 40.1667 375.865 38L378.365 26.875C378.365 26.5417 383.407 26.3333 393.49 26.25C393.49 25.1667 394.073 23.7917 395.24 22.125C395.573 9.125 396.032 2.625 396.615 2.625V2.25C396.615 2.08333 396.407 2 395.99 2V1.625C395.99 1.375 398.74 1 404.24 0.5ZM399.49 3.875H399.365V4.625H399.74V4.125L399.49 3.875ZM404.865 4.125L404.365 4.625V4.875L404.74 7.75H404.99C405.99 6.75 406.49 5.875 406.49 5.125V4.625L406.115 4.125H404.865ZM400.365 8.75L399.99 8.375C399.823 9.20833 399.74 10.2917 399.74 11.625V12.125H399.99L400.365 10V8.75ZM400.74 14H400.49L399.99 26.375V26.5L400.365 26.875H400.615C401.198 26.875 401.49 25.8333 401.49 23.75V20.875L401.24 14.75C401.073 14.25 400.907 14 400.74 14ZM379.115 28.375C379.115 28.9583 379.49 29.25 380.24 29.25H382.115C385.532 29.25 388.698 29.0833 391.615 28.75V28.5C391.615 28.0833 389.573 27.875 385.49 27.875H380.24C379.49 27.875 379.115 28.0417 379.115 28.375ZM418.115 27.875L416.49 28.5H414.99H412.865V28.875C414.698 29.375 416.282 29.625 417.615 29.625H420.49C420.657 29.625 420.74 29.5 420.74 29.25C420.573 28.3333 420.115 27.875 419.365 27.875H418.115ZM421.615 29.125L421.24 29.375V29.625L421.615 29.75C422.448 29.75 422.907 29.5833 422.99 29.25V29.125H421.615ZM381.115 30.75L380.865 31V31.75C380.865 32.5833 383.657 33 389.24 33C392.073 33 393.49 32.7917 393.49 32.375C393.49 31.375 389.823 30.8333 382.49 30.75H381.115ZM407.74 31.875L407.365 32.25V32.375C407.365 32.7917 408.865 33.0417 411.865 33.125L413.99 33L416.865 33.5H417.365C417.948 33.5 418.24 33.25 418.24 32.75H418.115L408.615 31.875H407.74ZM421.24 34.625L420.74 35.125V35.25L421.24 35.625H421.865C422.615 35.625 423.073 35.375 423.24 34.875L422.865 34.625H421.24ZM382.24 35.125L381.74 35.5C381.74 35.8333 381.948 36 382.365 36L385.49 36.125L388.865 36L388.99 35.875V35.625C387.99 35.2917 386.115 35.125 383.365 35.125H382.24ZM391.99 37.5L381.74 37.125V37.375C381.74 37.9583 384.907 38.25 391.24 38.25L392.24 38V37.875L391.99 37.5ZM409.865 37.875H409.24V38.25C409.323 38.4167 410.782 38.8333 413.615 39.5H413.865V39.25C412.532 38.3333 411.198 37.875 409.865 37.875ZM416.24 39.125C418.49 39.875 420.49 40.25 422.24 40.25L422.74 39.75V39L422.365 38.625H419.615C417.365 38.625 416.24 38.7917 416.24 39.125ZM398.865 43.625V44.625L399.24 45C399.573 44.9167 399.74 44.625 399.74 44.125V43.625L399.49 42.75H399.365C399.032 42.8333 398.865 43.125 398.865 43.625ZM403.49 45.875L402.865 45.375V45.75L403.365 46.25H403.49V45.875ZM399.49 46.125H399.24L399.115 46.75V47.375L399.24 48.125H399.74V47V46.375L399.49 46.125ZM399.74 54.75H399.365V55.75L399.74 56.25H399.99V55.75L399.74 54.75ZM393.74 70.625L394.115 74.125L393.99 78.5L394.115 79.75H394.49C394.99 79.75 395.24 77.7917 395.24 73.875V71C395.24 67.1667 395.073 65.25 394.74 65.25C394.157 65.25 393.823 67.0417 393.74 70.625ZM401.865 80.5H401.615L401.49 81.375V82.375C401.49 82.9583 401.657 83.2917 401.99 83.375H402.24C402.573 83.2917 402.74 83 402.74 82.5C402.657 81.1667 402.365 80.5 401.865 80.5ZM402.865 85.875L402.365 87.25C402.365 89.1667 402.782 90.375 403.615 90.875L403.865 90.375V89.25C403.782 87.1667 403.448 86.0417 402.865 85.875ZM397.99 86.75H397.615V88.625L397.865 89.375H397.99L398.24 89.125V87L397.99 86.75ZM401.615 94.625V94.75V95.5C401.698 95.8333 401.99 96.1667 402.49 96.5H403.365V96.25C403.365 95.3333 402.782 94.7917 401.615 94.625ZM415.49 97.125H415.99C419.073 96.625 420.615 96.0833 420.615 95.5L420.365 95.25C417.115 96.0833 415.49 96.7083 415.49 97.125ZM398.49 95.375H398.24V95.875C398.49 97.9583 399.407 99 400.99 99H402.24L402.49 98.625V98.5C402.49 98.3333 401.74 98.0417 400.24 97.625L398.49 95.375Z" fill="black"/>
</svg>
